<svg width="265" height="132" viewBox="0 0 265 132" fill="none" xmlns="http://www.w3.org/2000/svg">
<path d="M224.521 20.8956C224.521 31.9734 215.89 69.2047 211.491 79.4393C207.091 89.6739 200.643 98.9732 192.514 106.806C184.386 114.64 174.735 120.853 164.114 125.093C153.494 129.332 142.11 131.514 130.615 131.514C119.119 131.514 107.735 129.332 97.1146 125.093C86.4938 120.853 76.8435 114.64 68.7147 106.806C60.5859 98.9732 54.1377 89.6739 49.7385 79.4393C45.3392 69.2047 38.1011 31.9734 38.1011 20.8956C38.1011 20.8956 49.7385 20.8956 79.8813 20.8956C110.024 20.8956 105.843 0.403417 130.615 0.00550945C155.386 -0.392398 144.043 20.8956 177.568 20.8956C211.093 20.8956 224.521 20.8956 224.521 20.8956Z" fill="#C4C4C4"/>
<path d="M42.775 20.8956C35.7406 20.8956 28.8148 22.2754 22.611 24.9128C16.4072 27.5502 11.117 31.3637 7.2089 36.0156C3.30079 40.6675 0.895466 46.0142 0.205974 51.5821C-0.483518 57.1499 0.564109 62.7671 3.25606 67.936C5.948 73.1049 10.2012 77.6661 15.6388 81.2154C21.0765 84.7647 27.5308 87.1926 34.43 88.2841C41.3293 89.3756 48.4605 89.097 55.192 87.4729C61.9235 85.8488 68.0475 82.9294 73.0216 78.9733L64.631 72.2998C61.0367 75.1585 56.6116 77.268 51.7474 78.4416C46.8833 79.6151 41.7303 79.8165 36.745 79.0278C31.7597 78.2391 27.0958 76.4847 23.1666 73.92C19.2374 71.3552 16.1641 68.0594 14.2189 64.3244C12.2737 60.5894 11.5167 56.5304 12.0149 52.5071C12.5131 48.4838 14.2512 44.6204 17.0752 41.2589C19.8992 37.8975 23.7218 35.1418 28.2047 33.2361C32.6875 31.3304 37.692 30.3333 42.775 30.3333L42.775 20.8956Z" fill="#C4C4C4"/>
<path d="M221.833 20.8956C228.868 20.8956 235.794 22.2754 241.997 24.9128C248.201 27.5502 253.491 31.3637 257.4 36.0156C261.308 40.6675 263.713 46.0142 264.402 51.5821C265.092 57.1499 264.044 62.7671 261.352 67.936C258.66 73.1049 254.407 77.6661 248.97 81.2154C243.532 84.7647 237.078 87.1926 230.178 88.2841C223.279 89.3756 216.148 89.097 209.416 87.4729C202.685 85.8488 196.561 82.9294 191.587 78.9733L199.977 72.2998C203.572 75.1585 207.997 77.268 212.861 78.4416C217.725 79.6151 222.878 79.8165 227.863 79.0278C232.849 78.2391 237.513 76.4847 241.442 73.92C245.371 71.3552 248.444 68.0594 250.39 64.3244C252.335 60.5894 253.092 56.5304 252.593 52.5071C252.095 48.4838 250.357 44.6204 247.533 41.2589C244.709 37.8975 240.887 35.1418 236.404 33.2361C231.921 31.3304 226.916 30.3333 221.833 30.3333L221.833 20.8956Z" fill="#C4C4C4"/>
<path d="M44 59C44 59 66.1963 54.9167 84.5 48.5502C102.804 42.1837 113.68 26.4266 131.387 26.4266C149.094 26.4266 156.196 42.1837 174.5 48.5502C192.804 54.9167 218 59 218 59M57.4999 92.5C57.4999 92.5 62.9606 88.6676 74.4999 82.5C86.0393 76.3324 108.43 63.2728 128.922 63.4717C149.414 63.2728 185 82.5 204.5 92.5" stroke="white" strokeWidth="10"/>
</svg>