<svg width="20" height="22" viewBox="0 0 25 22" fill="none" xmlns="http://www.w3.org/2000/svg">
  <path d="M14.8314 9.83922C13.9206 13.1336 10.5118 15.0659 7.21742 14.1551C3.92307 13.2444 1.99078 9.83551 2.90151 6.54117C3.81224 3.24683 7.22113 1.31453 10.5155 2.22526C13.8098 3.13599 15.7421 6.54488 14.8314 9.83922ZM4.40587 6.95705C3.72482 9.42056 5.16979 11.9697 7.6333 12.6508C10.0968 13.3318 12.646 11.8868 13.327 9.42334C14.0081 6.95983 12.5631 4.41066 10.0996 3.72962C7.63608 3.04857 5.08691 4.49354 4.40587 6.95705Z" fill="#D7D7D7"/>
  <path d="M19.1179 21.5918L11.9236 13.5834L13.2427 12.5213L20.1841 20.6381L19.1179 21.5918Z" fill="#C0BDE8"/>
</svg>